<svg width="209" height="67" viewBox="0 0 209 67" fill="none" xmlns="http://www.w3.org/2000/svg">
<path d="M88.915 27.2547V42.4656H84.7295V27.2547H88.915Z" stroke="white"/>
<path d="M79.0913 19.197V38.2732C79.0913 38.6651 79.1959 39.0324 79.4429 39.3074C79.6955 39.5886 80.0433 39.7126 80.4019 39.7126C80.4628 39.7126 80.523 39.7069 80.5825 39.7029V42.5808C80.4179 42.6614 80.2016 42.7461 79.9487 42.8162C79.5732 42.9202 79.1646 42.9841 78.814 42.9841C77.4872 42.9841 76.5287 42.595 75.8999 41.947C75.2688 41.2965 74.9058 40.3191 74.9058 39.0183V19.197H79.0913Z" stroke="white"/>
<path d="M86.3862 17.7917C86.6072 17.5065 87.0391 17.5046 87.2632 17.7887C87.7027 18.3489 88.2315 19.0753 88.6479 19.8014C89.0771 20.5497 89.3364 21.2143 89.3364 21.6745C89.3364 22.46 89.0735 23.0204 88.6636 23.3893C88.2463 23.7647 87.6222 23.9899 86.8208 23.9899C86.0195 23.9898 85.4056 23.7658 84.9976 23.3932C84.596 23.0264 84.3384 22.4657 84.3384 21.6745C84.3384 21.2128 84.5949 20.5488 85.0181 19.8024C85.4291 19.0775 85.9517 18.3518 86.3862 17.7917Z" stroke="white"/>
<path d="M86.3862 17.7917C86.6072 17.5065 87.0391 17.5046 87.2632 17.7887C87.7027 18.3489 88.2315 19.0753 88.6479 19.8014C89.0771 20.5497 89.3364 21.2143 89.3364 21.6745C89.3364 22.46 89.0735 23.0204 88.6636 23.3893C88.2463 23.7647 87.6222 23.9899 86.8208 23.9899C86.0195 23.9898 85.4056 23.7658 84.9976 23.3932C84.596 23.0264 84.3384 22.4657 84.3384 21.6745C84.3384 21.2128 84.5949 20.5488 85.0181 19.8024C85.4291 19.0775 85.9517 18.3518 86.3862 17.7917Z" stroke="white"/>
<path d="M101.346 18.8394C102.219 18.8394 102.849 18.9044 103.341 19.0327V22.1157C103.036 22.0703 102.698 22.0484 102.318 22.0483C101.426 22.0483 100.688 22.2808 100.181 22.814C99.6779 23.3427 99.4827 24.0806 99.4827 24.9106V27.2544H103.243V30.4937H99.4827V42.48C99.4826 44.692 98.9713 46.4246 98.0159 47.5952C97.0732 48.75 95.646 49.4223 93.6624 49.4224C92.9719 49.4224 92.3359 49.3211 91.8655 49.1802L91.9163 45.6704C92.151 45.7119 92.3965 45.73 92.6575 45.73C93.6357 45.73 94.3555 45.4066 94.7922 44.728C95.1955 44.1014 95.2971 43.2548 95.2971 42.3511V30.4937H92.5422V27.2544H95.2971V24.7798C95.2971 22.8543 95.8591 21.3857 96.8557 20.3979C97.8529 19.4097 99.3497 18.8394 101.346 18.8394Z" stroke="white"/>
<path d="M113.272 26.7383C115.382 26.7384 117.144 27.4281 118.377 28.6553C119.61 29.8815 120.357 31.688 120.357 34.0039C120.357 34.6469 120.282 35.2164 120.19 35.7032H109.385L109.509 36.3037C109.758 37.5092 110.309 38.3872 111.217 38.9434C112.099 39.4836 113.255 39.6797 114.634 39.6797C116.63 39.6797 118.288 39.236 119.514 38.6211V41.6934C118.153 42.5486 115.944 42.9844 113.953 42.9844C111.312 42.9844 109.219 42.1984 107.789 40.8155C106.36 39.4346 105.538 37.4066 105.538 34.8125C105.538 32.4015 106.341 30.3869 107.692 28.9785C109.041 27.5718 110.966 26.7383 113.272 26.7383ZM113.239 29.8467C112.247 29.8467 111.376 30.1363 110.706 30.7334C110.038 31.3282 109.615 32.1865 109.44 33.2412L109.343 33.8233H116.909L116.882 33.2989C116.829 32.2213 116.487 31.3386 115.832 30.7285C115.178 30.1202 114.28 29.8467 113.239 29.8467Z" stroke="white"/>
<path d="M140.501 26.7358C144.471 26.7358 147.458 30.0972 147.458 34.8754V34.8774C147.458 39.5596 144.438 42.9848 140.501 42.9848C138.649 42.9847 137.261 42.2534 136.323 40.7602L135.399 39.2914V49.1H131.342V27.2543H135.139V29.1801L136.083 29.4096C137.001 27.6354 138.481 26.7359 140.501 26.7358ZM139.174 30.267C137.961 30.2671 136.871 30.7212 136.086 31.5414C135.302 32.3613 134.849 33.5179 134.849 34.8774C134.849 36.2344 135.292 37.3849 136.074 38.1987C136.858 39.0129 137.948 39.4554 139.174 39.4555C140.408 39.4555 141.478 38.9904 142.235 38.1596C142.988 37.3325 143.402 36.1781 143.402 34.8452C143.402 33.5099 142.977 32.3627 142.218 31.5444C141.457 30.7237 140.389 30.267 139.174 30.267Z" stroke="white"/>
<path d="M155.498 27.2547V36.2029C155.498 37.1561 155.778 37.9982 156.339 38.6072C156.904 39.2212 157.709 39.5486 158.655 39.5486C159.601 39.5486 160.406 39.2205 160.971 38.6062C161.532 37.997 161.812 37.1552 161.812 36.2029V27.2547H165.998V35.9129C165.998 38.1867 165.295 39.9384 164.064 41.1228C162.83 42.3095 161.006 42.9841 158.653 42.9842C156.3 42.9842 154.475 42.3091 153.241 41.1219C152.057 39.9829 151.364 38.3203 151.312 36.1746V27.2547H155.498Z" stroke="white"/>
<path d="M174.979 19.197V38.2732C174.979 38.6641 175.082 39.032 175.328 39.3074C175.581 39.5894 175.93 39.7126 176.289 39.7126C176.35 39.7126 176.411 39.707 176.47 39.7029V42.5808C176.305 42.6614 176.089 42.7461 175.836 42.8162C175.461 42.9202 175.052 42.9841 174.701 42.9841C173.375 42.9841 172.416 42.595 171.787 41.947C171.156 41.2965 170.793 40.3191 170.793 39.0183V19.197H174.979Z" stroke="white"/>
<path d="M186.373 26.7383C187.67 26.7384 188.935 27.0331 189.633 27.3506V30.2139C188.89 29.9147 187.999 29.6856 186.988 29.6856C186.204 29.6856 185.521 29.803 185.016 30.0655C184.489 30.3385 184.121 30.7942 184.121 31.4141C184.121 31.8033 184.225 32.16 184.509 32.4688C184.767 32.7499 185.142 32.9526 185.594 33.1367V33.1377L187.214 33.8174L187.215 33.8184C188.457 34.3362 189.294 34.9012 189.823 35.5684C190.343 36.2233 190.602 37.0215 190.602 38.0821C190.601 39.3826 190.084 40.5941 189.062 41.4864C188.038 42.381 186.47 42.9844 184.326 42.9844C182.48 42.9844 180.976 42.502 180.13 41.9366V39.1524C181.088 39.6291 182.385 40.0048 183.649 40.0049C184.649 40.0049 185.423 39.8375 185.962 39.4991C186.53 39.1419 186.807 38.6113 186.807 38.0166C186.807 37.5796 186.659 37.2061 186.337 36.8907C186.043 36.6029 185.62 36.38 185.107 36.1651L185.105 36.1641L183.395 35.4541H183.396C182.282 34.9692 181.472 34.4269 180.938 33.7696C180.415 33.1244 180.13 32.3335 180.13 31.2862C180.13 30.0379 180.678 28.9179 181.718 28.0987C182.764 27.2739 184.334 26.7383 186.373 26.7383Z" stroke="white"/>
<path d="M201.415 26.7383C203.525 26.7384 205.287 27.4281 206.521 28.6553C207.753 29.8815 208.5 31.688 208.5 34.0039C208.5 34.6469 208.425 35.2164 208.333 35.7032H197.525L197.649 36.3037C197.898 37.5092 198.449 38.3872 199.357 38.9434C200.24 39.4837 201.395 39.6797 202.774 39.6797C204.771 39.6797 206.43 39.2361 207.657 38.6211V41.6934C206.296 42.5487 204.087 42.9844 202.096 42.9844C199.456 42.9844 197.362 42.1984 195.932 40.8155C194.503 39.4346 193.681 37.4066 193.681 34.8125C193.681 32.4015 194.484 30.3869 195.835 28.9785C197.184 27.5718 199.109 26.7383 201.415 26.7383ZM201.382 29.8467C200.39 29.8467 199.519 30.1363 198.849 30.7334C198.181 31.3282 197.759 32.1865 197.583 33.2412L197.486 33.8233H205.052L205.025 33.2989C204.972 32.2213 204.63 31.3386 203.975 30.7285C203.321 30.1202 202.423 29.8467 201.382 29.8467Z" stroke="white"/>
<path d="M31.342 0.592438C33.7835 0.291881 35.7478 0.873822 37.2688 2.28677C38.0014 2.96739 38.0891 3.08014 41.1487 8.02213C45.0514 14.3259 47.0529 17.7744 49.3752 22.192C54.0148 31.0173 56.2496 37.0769 56.4983 41.3044C56.5607 42.3654 56.4454 43.8723 56.22 45.3288C55.9935 46.7918 55.6659 48.1418 55.3284 48.9049C55.2395 49.106 55.0665 49.3612 54.8479 49.6061C54.6294 49.8509 54.3952 50.0514 54.2053 50.1628C52.8682 50.9464 51.0627 50.6715 50.0999 49.5778C49.7391 49.1678 49.5324 48.7437 49.4534 48.2702C49.3732 47.7896 49.419 47.224 49.6184 46.528C50.264 44.2741 50.4609 42.2334 50.1741 40.4645C49.7028 37.5592 48.0607 33.287 45.4719 28.0456C42.8765 22.7908 39.3082 16.5206 34.9534 9.60513C34.1363 8.30762 33.3755 7.09551 33.261 6.90884C33.1918 6.79617 33.1145 6.68809 33.0413 6.6022C33.0058 6.5606 32.9623 6.51296 32.9133 6.47134C32.8893 6.4509 32.8528 6.42203 32.8069 6.39615C32.7713 6.3761 32.6735 6.32486 32.5403 6.32486C32.4067 6.32495 32.3089 6.37628 32.2737 6.39615C32.228 6.42195 32.1922 6.45093 32.1682 6.47134C32.1193 6.51298 32.0748 6.56058 32.0393 6.6022C31.9662 6.68801 31.8896 6.79634 31.8206 6.90884H31.8196C31.7047 7.09606 30.9444 8.30789 30.1272 9.60513C23.1115 20.742 17.9124 30.6374 15.8547 36.8102C14.8874 39.7122 14.6266 41.423 14.8645 43.5876C15.6087 50.3607 20.6182 56.0716 27.4563 57.9958C29.3538 58.5296 30.1754 58.6298 32.5403 58.6315C34.4067 58.6328 34.8125 58.6114 35.7209 58.4391C37.652 58.0728 39.4039 57.4856 41.0549 56.6471C41.5237 56.4091 41.8113 56.2893 42.0833 56.2262C42.3514 56.1641 42.6345 56.1505 43.1028 56.1696C43.4407 56.1834 43.6207 56.199 43.7659 56.2301C43.9022 56.2594 44.0267 56.3059 44.2463 56.4088C45.4102 56.9548 46.033 57.993 45.9563 59.192C45.9287 59.6226 45.8597 59.9312 45.7424 60.194C45.6257 60.4556 45.4471 60.7032 45.1555 60.9928C44.9173 61.2294 44.7905 61.3412 44.5549 61.4801C44.2949 61.6335 43.9073 61.8157 43.1389 62.1667C39.3926 63.8778 35.7866 64.5991 31.5803 64.4762C21.043 64.1682 11.87 57.1191 9.29712 47.403C8.80577 45.5474 8.61021 44.0559 8.60669 42.1276C8.60491 41.1546 8.62352 40.5451 8.70728 39.9118C8.79152 39.275 8.94396 38.5997 9.22095 37.4967C10.5102 32.3636 14.1992 24.4376 19.7542 14.9001L20.8899 12.9713C21.8296 11.3925 26.4298 3.98693 26.844 3.38443C27.8624 1.9033 29.6498 0.800912 31.342 0.592438Z" stroke="white"/>
</svg>
